<svg xmlns="http://www.w3.org/2000/svg" width="24" height="24" fill="none">
  <g fill="#732E76" stroke="#FFF3EF" stroke-width=".3" clip-path="url(#a)">
    <path d="M12.041.903h.006a11.106 11.106 0 0 1 7.932 3.096l.104-.108-.104.108a11.061 11.061 0 0 1 3.437 7.79v.024a11.061 11.061 0 0 1-3.437 7.79 11.101 11.101 0 0 1-7.938 3.097h-.019a11.7 11.7 0 0 1-3.87-.657l-.069-.023-.06.038-2.24 1.395a.974.974 0 0 1-.717.128.99.99 0 0 1-.778-.97V19.762l-.05-.045a10.694 10.694 0 0 1-3.566-7.913v-.016a11.06 11.06 0 0 1 3.437-7.79A11.104 11.104 0 0 1 12.041.903ZM8.35 20.999a10.65 10.65 0 0 0 3.673.652H12.056c2.694.052 5.25-.944 7.196-2.804l-.104-.109.104.109a10.02 10.02 0 0 0 3.113-7.042v-.007a10.022 10.022 0 0 0-3.113-7.042 10.058 10.058 0 0 0-7.196-2.804H12.034a10.067 10.067 0 0 0-7.197 2.804 10.019 10.019 0 0 0-3.113 7.048v.004a9.647 9.647 0 0 0 3.326 7.226c.184.16.29.39.29.632v2.827l.229-.143 2.046-1.275A.835.835 0 0 1 8.349 21Z"/>
    <path d="M12.574 7.99a2.844 2.844 0 0 1 1.777-.611c.87 0 1.669.347 2.252.978.57.618.887 1.46.887 2.376 0 .983-.375 1.8-1.028 2.606-.657.811-1.585 1.601-2.68 2.533-.358.304-.764.649-1.189 1.02a.834.834 0 0 1-1.098 0c-.422-.368-.83-.715-1.188-1.02-1.095-.932-2.023-1.722-2.68-2.533-.653-.806-1.029-1.623-1.029-2.606 0-.916.317-1.758.887-2.375a3.03 3.03 0 0 1 2.253-.98c.653 0 1.25.206 1.777.612.148.114.288.243.42.385l.11.119.11-.12c.13-.141.271-.27.419-.384Zm-.628 7.902.098.085.098-.085c.337-.29.655-.561.944-.807l.013-.011.01-.008c1.017-.865 1.846-1.57 2.419-2.24.578-.674.91-1.328.91-2.093 0-1.317-.867-2.306-2.087-2.306-.42 0-.793.13-1.134.393a2.75 2.75 0 0 0-.652.755.61.61 0 0 1-.52.295.61.61 0 0 1-.521-.295 2.747 2.747 0 0 0-.653-.755 1.8 1.8 0 0 0-1.133-.393c-1.22 0-2.088.99-2.088 2.306 0 .765.333 1.42.91 2.094.574.669 1.403 1.374 2.42 2.24l.01.007.012.01c.29.247.61.519.944.809Z"/>
  </g>
  <defs>
    <clipPath id="a">
      <path fill="#fff" d="M.5.751h23.001v23.001H.5z"/>
    </clipPath>
  </defs>
</svg>