<svg width="18" height="12" viewBox="0 0 18 12" fill="none" xmlns="http://www.w3.org/2000/svg">
<path d="M13.9884 10.9779H11.1234V9.83196H13.9884C15.5681 9.83196 16.8534 8.54679 16.8534 6.967C16.8534 5.38722 15.5681 4.10204 13.9884 4.10204H0.80957V2.95605H13.9884C16.2001 2.95605 17.9994 4.75575 17.9994 6.967C17.9994 9.17811 16.2001 10.9779 13.9884 10.9779Z" fill="#622565"/>
<path d="M2.29197 5.82083L0 3.52886L2.29197 1.23689C2.51538 1.01348 2.87867 1.01348 3.10222 1.23689C3.32562 1.4603 3.32562 1.82359 3.10222 2.04714L1.62036 3.52886L3.10222 5.01059C3.32562 5.23413 3.32562 5.59743 3.10222 5.82083C2.87867 6.04424 2.51538 6.04424 2.29197 5.82083Z" fill="#622565"/>
<path d="M8.83252 9.83203H9.97851V10.978H8.83252V9.83203Z" fill="#622565"/>
<path d="M6.54028 9.83203H7.68627V10.978H6.54028V9.83203Z" fill="#622565"/>
</svg>
