<svg xmlns="http://www.w3.org/2000/svg" width="18" height="18" fill="none">
  <g clip-path="url(#a)">
    <path fill="#C68CB9" d="M16.538 13.378c-.616-.349-2.65-1.744-2.65-1.744a2.345 2.345 0 0 0-2.775.399 1.825 1.825 0 0 1-2.577 0L5.963 9.457a1.817 1.817 0 0 1 0-2.575 2.349 2.349 0 0 0 .406-2.766s-1.4-2.036-1.745-2.652c-.476-.84-1.597-.67-2.283.028-2.992 3.045-.935 8.03 2.605 11.564 3.54 3.534 8.52 5.595 11.567 2.602.69-.686.86-1.807.025-2.28Z"/>
  </g>
  <defs>
    <clipPath id="a">
      <path fill="#fff" d="M0 0h18v18H0z"/>
    </clipPath>
  </defs>
</svg>