<svg xmlns="http://www.w3.org/2000/svg" width="24" height="24" fill="none">
  <g stroke="#732E76" stroke-linecap="round" stroke-linejoin="round" stroke-width=".719" clip-path="url(#a)">
    <path d="M7.208 3.626H6.25a1.917 1.917 0 0 0-1.917 1.917V18.96a1.917 1.917 0 0 0 1.917 1.917h11.5a1.917 1.917 0 0 0 1.917-1.917V8.253c0-.508-.202-.996-.562-1.355l-2.71-2.71a1.917 1.917 0 0 0-1.355-.562h-3.998"/>
    <path d="M19.668 8.418h-3.834a.958.958 0 0 1-.958-.959V3.626M10.083 2.667H8.166a.958.958 0 0 0-.958.959v4.792l1.917-.959 1.916.959V3.626a.958.958 0 0 0-.958-.959v0ZM7.208 12.252h8.625M7.208 15.605h8.625"/>
  </g>
  <defs>
    <clipPath id="a">
      <path fill="#fff" d="M.5.751h23.001v23.001H.5z"/>
    </clipPath>
  </defs>
</svg>