<svg width="18" height="13" viewBox="0 0 18 13" fill="none" xmlns="http://www.w3.org/2000/svg">
<path d="M13.9884 11.4779H11.1234V10.332H13.9884C15.5681 10.332 16.8534 9.04679 16.8534 7.467C16.8534 5.88722 15.5681 4.60204 13.9884 4.60204H0.80957V3.45605H13.9884C16.2001 3.45605 17.9994 5.25575 17.9994 7.467C17.9994 9.67811 16.2001 11.4779 13.9884 11.4779Z" fill="white"/>
<path d="M2.29197 6.32083L0 4.02886L2.29197 1.73689C2.51538 1.51348 2.87867 1.51348 3.10222 1.73689C3.32562 1.9603 3.32562 2.32359 3.10222 2.54714L1.62036 4.02886L3.10222 5.51059C3.32562 5.73413 3.32562 6.09743 3.10222 6.32083C2.87867 6.54424 2.51538 6.54424 2.29197 6.32083Z" fill="white"/>
<path d="M8.83203 10.332H9.97802V11.478H8.83203V10.332Z" fill="white"/>
<path d="M6.54004 10.332H7.68603V11.478H6.54004V10.332Z" fill="white"/>
</svg>
