<svg xmlns="http://www.w3.org/2000/svg" width="18" height="13" fill="currentColor">
  <path fill="currentColor" d="M13.988 11.478h-2.865v-1.146h2.865a2.868 2.868 0 0 0 2.865-2.865 2.868 2.868 0 0 0-2.865-2.865H.81V3.456h13.178C16.2 3.456 18 5.256 18 7.467c0 2.211-1.799 4.01-4.01 4.01Z"/>
  <path fill="currentColor" d="M2.292 6.32 0 4.03l2.292-2.292a.574.574 0 0 1 .81.81L1.62 4.03 3.102 5.51a.574.574 0 0 1-.81.81ZM8.832 10.332h1.146v1.146H8.832v-1.146ZM6.54 10.332h1.146v1.146H6.54v-1.146Z"/>
</svg>