<svg xmlns="http://www.w3.org/2000/svg" width="24" height="24">
  <style>
    @keyframes spinner_StKS{to{transform:rotate(360deg)}}
  </style>
  <path fill="none" stroke="#622565" stroke-width="2" d="M12 2C6.48 2 2 6.48 2 12s4.48 10 10 10 10-4.48 10-10S17.52 2 12 2z" opacity=".25"/>
  <path fill="#622565" d="M12 4a8 8 0 0 1 7.89 6.7 1.53 1.53 0 0 0 1.49 1.3 1.5 1.5 0 0 0 1.48-1.75 11 11 0 0 0-21.72 0A1.5 1.5 0 0 0 2.62 12a1.53 1.53 0 0 0 1.49-1.3A8 8 0 0 1 12 4z" style="transform-origin:center;animation:spinner_StKS .75s infinite linear"/>
</svg>